<?xml version="1.0" encoding="utf-8"?>
<!-- Generator: Adobe Illustrator 23.1.1, SVG Export Plug-In . SVG Version: 6.00 Build 0)  -->
<svg version="1.1" id="Layer_1" xmlns="http://www.w3.org/2000/svg" xmlns:xlink="http://www.w3.org/1999/xlink" x="0px" y="0px"
	 viewBox="0 0 445.75 120.88" style="enable-background:new 0 0 445.75 120.88;" xml:space="preserve">
<style type="text/css">
	.st0{fill:#3A6ED0;}
</style>
<g>
	<path class="st0" d="M121.74,15.1c-0.59,1.54-1.2,3.07-1.76,4.61c-3.83,10.41-7.67,20.81-11.45,31.24
		c-0.46,1.27-1.06,1.77-2.44,1.72c-2.86-0.1-5.74-0.1-8.6,0c-1.37,0.05-1.98-0.45-2.44-1.72c-4.13-11.38-8.32-22.73-12.51-34.09
		c-0.23-0.63-0.57-1.22-0.85-1.83c-0.16,0.03-0.32,0.06-0.48,0.09c0,0.62,0,1.23,0,1.85c0,11.23-0.03,22.46,0.03,33.69
		c0.01,1.58-0.44,2.07-2.02,2.02c-3.28-0.11-6.57-0.07-9.86-0.01c-1.17,0.02-1.56-0.4-1.56-1.56c0.02-16.49,0.02-32.97,0-49.46
		c0-1.16,0.44-1.59,1.58-1.59C75.65,0.09,81.93,0.1,88.2,0.06c1.32-0.01,1.69,0.77,2.06,1.79c3.52,9.76,7.08,19.51,10.63,29.25
		c0.26,0.71,0.59,1.38,1.09,2.53c0.58-1.47,1.01-2.49,1.38-3.53c3.4-9.42,6.82-18.84,10.17-28.28c0.45-1.27,1.06-1.79,2.43-1.78
		c5.97,0.06,11.95,0.05,17.92,0.01c1.35-0.01,1.9,0.38,1.9,1.83c-0.04,16.37-0.04,32.73,0,49.1c0,1.39-0.53,1.72-1.8,1.69
		c-3.28-0.07-6.57-0.1-9.86,0.01c-1.5,0.05-1.79-0.54-1.78-1.89c0.04-11.17,0.02-22.34,0.02-33.51c0-0.69,0-1.39,0-2.08
		C122.16,15.17,121.95,15.14,121.74,15.1z"/>
	<path class="st0" d="M424.72,31.92c0.08-0.79,0.22-1.58,0.22-2.37c0.02-9.02,0.01-18.04,0.01-27.07c0-2.4,0.01-2.4,2.38-2.41
		c3.11-0.01,6.22,0.04,9.32-0.02c1.29-0.02,1.78,0.4,1.78,1.75c-0.04,16.37-0.04,32.74,0,49.12c0,1.32-0.39,1.77-1.73,1.75
		c-4.42-0.07-8.85-0.07-13.27,0c-1.3,0.02-2.05-0.44-2.75-1.51c-6.5-9.88-13.05-19.72-19.6-29.57c-0.49-0.73-1.03-1.43-2-2.06
		c-0.04,0.66-0.11,1.31-0.11,1.97c-0.01,9.74-0.03,19.48,0.02,29.22c0.01,1.45-0.37,2-1.9,1.95c-3.34-0.1-6.7-0.1-10.04,0
		c-1.46,0.04-1.81-0.47-1.81-1.86c0.04-16.25,0.05-32.5-0.01-48.76c-0.01-1.62,0.56-2.04,2.07-2.02c4.6,0.07,9.2,0.06,13.81,0
		c1.29-0.02,2.06,0.45,2.77,1.52c6.33,9.56,12.71,19.1,19.08,28.63c0.42,0.62,0.9,1.21,1.35,1.81
		C424.44,31.98,424.58,31.95,424.72,31.92z"/>
	<path class="st0" d="M147.13,26.41c0-8.12,0.03-16.25-0.03-24.37c-0.01-1.46,0.41-1.99,1.91-1.99c13.57,0.04,27.13,0.04,40.7,0
		c1.42,0,2.06,0.35,1.98,1.92c-0.12,2.5-0.12,5.02,0,7.52c0.08,1.58-0.44,2.06-2.02,2.04c-8.72-0.07-17.45-0.03-26.17-0.03
		c-2.66,0-2.66,0.01-2.66,2.67c0,1.49,0.08,2.99-0.02,4.48c-0.11,1.54,0.57,2.06,1.99,1.93c0.47-0.04,0.96,0,1.43,0
		c8.01,0,16.02,0,24.02,0c2.67,0,2.67,0,2.67,2.58c0,2.21-0.1,4.43,0.03,6.63c0.1,1.71-0.44,2.28-2.2,2.26
		c-8.19-0.08-16.37-0.03-24.56-0.04c-4.2,0-3.29,0.14-3.37,3.4c-0.03,1.25,0.07,2.51-0.02,3.76c-0.11,1.48,0.46,1.96,1.94,1.95
		c8.72-0.05,17.45-0.03,26.17-0.03c2.72,0,2.72,0,2.72,2.68c0,2.45-0.05,4.9,0.02,7.35c0.03,1.19-0.42,1.54-1.57,1.54
		c-13.8-0.03-27.61-0.04-41.41,0.01c-1.52,0.01-1.59-0.74-1.58-1.89C147.14,42.66,147.13,34.54,147.13,26.41z"/>
	<path class="st0" d="M295.23,94.67c0-8.07,0.04-16.13-0.03-24.19c-0.01-1.58,0.33-2.17,2.07-2.16c13.39,0.07,26.77,0.07,40.16,0
		c1.79-0.01,2.27,0.59,2.19,2.26c-0.12,2.5-0.09,5.02-0.01,7.53c0.04,1.42-0.5,1.84-1.89,1.83c-8.9-0.05-17.81,0.02-26.71-0.06
		c-1.67-0.01-2.22,0.51-2.09,2.14c0.13,1.66,0.12,3.35,0,5.01c-0.1,1.45,0.47,1.81,1.84,1.8c8.43-0.05,16.85-0.03,25.28-0.03
		c2.76,0,2.76,0,2.76,2.85c0,2.27-0.07,4.54,0.03,6.81c0.07,1.49-0.46,1.94-1.95,1.93c-8.55-0.06-17.09,0.02-25.64-0.06
		c-1.76-0.02-2.53,0.41-2.33,2.28c0.15,1.48,0.03,2.98,0.03,4.48c0,2.32,0.01,2.33,2.41,2.34c3.76,0.01,7.53,0,11.29,0
		c4.96,0,9.92,0.05,14.88-0.03c1.55-0.02,2.14,0.49,2.08,2.07c-0.1,2.57-0.06,5.14-0.01,7.71c0.02,1.2-0.41,1.71-1.67,1.7
		c-13.68-0.03-27.37-0.03-41.05,0.01c-1.42,0-1.67-0.6-1.66-1.84C295.25,110.92,295.23,102.79,295.23,94.67z"/>
	<path class="st0" d="M81.53,88.8c1.36,0,2.48,0,3.61,0c8.13,0,16.25,0.03,24.38-0.03c1.39-0.01,1.92,0.35,1.87,1.81
		c-0.1,2.62-0.1,5.26,0,7.88c0.06,1.49-0.44,1.94-1.93,1.93c-8.54-0.06-17.09,0.02-25.63-0.07c-1.76-0.02-2.51,0.4-2.32,2.28
		c0.16,1.6,0.15,3.23,0,4.83c-0.15,1.67,0.61,2.03,2.07,2.01c3.46-0.06,6.93-0.02,10.4-0.02c5.38,0,10.75,0.05,16.13-0.03
		c1.59-0.02,2.09,0.52,2.03,2.08c-0.11,2.56-0.07,5.14-0.01,7.7c0.03,1.21-0.36,1.7-1.63,1.7c-13.68-0.03-27.36-0.03-41.04,0
		c-1.26,0-1.64-0.47-1.64-1.69c0.03-16.42,0.03-32.85,0-49.27c0-1.13,0.34-1.58,1.54-1.58c13.74,0.03,27.48,0.03,41.22,0
		c1.19,0,1.57,0.43,1.55,1.57c-0.05,2.75-0.09,5.5,0.01,8.24c0.06,1.49-0.55,1.79-1.9,1.78c-8.84-0.05-17.68,0.02-26.53-0.06
		c-1.72-0.02-2.31,0.47-2.2,2.2C81.64,84.21,81.53,86.36,81.53,88.8z"/>
	<path class="st0" d="M445.75,68.35c-1.78,3.87-3.34,7.4-5.05,10.86c-0.21,0.43-1.19,0.67-1.81,0.67
		c-7.17,0.05-14.34,0.03-21.51,0.03c-2.09,0-3.96,0.58-4.98,2.56c-1.51,2.95,0.67,6.23,4.23,6.3c4.24,0.09,8.5-0.18,12.72,0.09
		c3.05,0.2,6.18,0.68,9.07,1.63c4.46,1.48,7.15,4.86,8.06,9.48c1.3,6.61-0.05,12.47-5.39,16.96c-2.87,2.41-6.32,3.73-10.03,3.79
		c-9.8,0.16-19.6,0.08-29.4,0.14c-1.36,0.01-1.76-0.49-1.72-1.79c0.08-2.39,0.02-4.78,0.02-7.17c0-2.49,0-2.5,2.43-2.5
		c8.01,0,16.01,0.01,24.02-0.01c1.07,0,2.16-0.05,3.21-0.23c2.05-0.35,3.55-2.07,3.65-4.06c0.11-1.97-1.08-3.74-3.06-4.35
		c-0.9-0.27-1.87-0.39-2.81-0.4c-4.66-0.04-9.33,0.13-13.98-0.08c-4.46-0.21-8.47-1.68-11.59-5.17c-5.96-6.67-4.87-20.63,5.93-24.9
		c2.82-1.11,6-1.71,9.03-1.79c8.96-0.23,17.92-0.08,26.89-0.08C444.2,68.35,444.73,68.35,445.75,68.35z"/>
	<path class="st0" d="M393.6,68.35c-1.25,2.72-2.62,5.05-3.4,7.57c-1.01,3.29-2.86,4.25-6.26,4.07c-6.26-0.33-12.54-0.11-18.81-0.08
		c-2.89,0.01-4.89,1.45-5.23,3.66c-0.45,2.92,1.52,5.17,4.69,5.21c4.24,0.05,8.49-0.14,12.72,0.07c2.77,0.14,5.63,0.46,8.25,1.32
		c5.05,1.66,8.13,5.35,8.92,10.65c1.03,6.86-0.96,13.62-7.47,17.44c-2.66,1.56-5.55,2.51-8.66,2.53c-9.56,0.06-19.12,0.03-28.68,0.1
		c-1.39,0.01-1.93-0.45-1.89-1.86c0.07-2.39,0.01-4.78,0.02-7.17c0.01-2.39,0.03-2.43,2.38-2.43c7.95-0.01,15.89,0,23.84-0.01
		c0.95,0,1.91-0.06,2.86-0.17c2.48-0.29,3.91-1.62,4.08-3.74c0.21-2.57-0.94-4.21-3.46-4.84c-0.8-0.2-1.64-0.28-2.47-0.28
		c-4.6-0.03-9.21,0.12-13.8-0.07c-4.21-0.18-8.04-1.55-11.11-4.65c-6.46-6.5-6.02-22.13,7.35-26.17c2.36-0.71,4.91-1.05,7.38-1.08
		c8.9-0.13,17.8-0.05,26.7-0.05C392.12,68.35,392.7,68.35,393.6,68.35z"/>
	<path class="st0" d="M179.26,120.86c-4.1,0-7.7-0.29-11.23,0.07c-4.56,0.46-7.88-0.76-10.57-4.71c-2.47-3.63-5.68-6.76-8.57-10.1
		c-0.54-0.63-1.13-1.21-1.9-2.02c-1.23,1.37-2.38,2.62-3.49,3.9c-3.31,3.85-6.59,7.72-9.93,11.55c-0.48,0.55-1.2,1.23-1.82,1.24
		c-5.36,0.1-10.73,0.06-16.53,0.06c2.17-2.46,4.07-4.63,5.98-6.8c5.42-6.13,10.83-12.28,16.31-18.35c0.95-1.05,0.87-1.69-0.01-2.67
		c-6.97-7.79-13.9-15.62-20.84-23.43c-0.27-0.3-0.5-0.63-0.98-1.23c3.08,0,5.86,0,8.63,0c2.27,0,4.55,0.11,6.81-0.04
		c1.62-0.1,2.65,0.5,3.65,1.71c3.76,4.49,7.61,8.89,11.44,13.32c0.27,0.31,0.61,0.55,1.13,1.01c1.45-1.64,2.87-3.21,4.26-4.82
		c2.94-3.38,5.84-6.8,8.82-10.14c0.45-0.51,1.26-0.99,1.91-1c5.19-0.08,10.39-0.04,16-0.04c-0.75,0.93-1.29,1.66-1.88,2.33
		c-6.43,7.24-12.83,14.5-19.32,21.67c-1.17,1.29-1.22,2.08-0.05,3.39c6.82,7.6,13.56,15.28,20.32,22.93
		C177.9,119.24,178.39,119.83,179.26,120.86z"/>
	<path class="st0" d="M315.87,41.08c-1.83,3.86-3.47,7.35-5.17,10.82c-0.17,0.34-0.72,0.7-1.1,0.71c-6.89,0.26-13.6-0.29-19.53-4.4
		c-5.62-3.9-8.45-9.48-9.48-16.02c-0.95-6.03-0.63-12.04,1.77-17.75c3.33-7.95,9.49-12.73,17.87-13.71
		c7.2-0.84,14.54-0.5,21.82-0.59c0.4-0.01,1.15,0.83,1.17,1.3c0.11,3.04,0.02,6.09,0.07,9.14c0.02,1.37-0.85,1.35-1.79,1.35
		c-3.89,0-7.77-0.05-11.66,0.02c-3.15,0.06-6.31,0.1-9.26,1.57c-4.33,2.15-6.11,5.89-6.6,10.38c-0.37,3.41-0.14,6.82,1.3,10.01
		c2.33,5.2,6.83,6.88,12.07,7.14C310.03,41.19,312.72,41.08,315.87,41.08z"/>
	<path class="st0" d="M258.57,26.35c0-7.94,0-15.89,0-23.83c0-2.43,0.01-2.44,2.51-2.44c3.05,0,6.09,0.04,9.14-0.02
		c1.35-0.03,1.92,0.41,1.92,1.84c-0.03,16.36-0.03,32.73,0,49.09c0,1.39-0.57,1.71-1.83,1.68c-3.28-0.07-6.57-0.1-9.86,0.01
		c-1.55,0.05-1.91-0.54-1.91-1.97C258.6,42.59,258.57,34.47,258.57,26.35z"/>
	<path class="st0" d="M236.18,33.62c1.13-0.35,1.75-0.55,2.37-0.73c7.93-2.31,12.83-9.77,11.92-18.14
		c-0.87-7.98-7.66-14.34-15.9-14.5c-10.51-0.2-21.02-0.12-31.54-0.2c-1.29-0.01-1.78,0.39-1.78,1.75c0.04,16.42,0.04,32.84,0,49.26
		c0,1.31,0.51,1.62,1.7,1.6c3.34-0.06,6.69-0.1,10.03,0.01c1.56,0.05,2.07-0.4,2.04-2c-0.1-4.89-0.06-9.79-0.01-14.69
		c0.01-0.63,0.21-1.56,0.65-1.82c1.34-0.81,5.03,0.03,6.06,1.22c3.89,4.45,7.92,8.79,11.58,13.43c2.26,2.87,4.66,4.55,8.42,3.87
		c1.16-0.21,2.38-0.03,3.58-0.03c2.65,0,5.31,0,8.28,0C247.71,46.22,242.09,40.08,236.18,33.62z M230.85,22.77
		c-2.38,0.11-4.78,0.02-7.17,0.02c0,0,0,0.01,0,0.01c-2.33,0-4.66-0.04-6.99,0.02c-1.2,0.03-1.74-0.37-1.72-1.64
		c0.06-2.69,0.05-5.37,0-8.06c-0.02-1.16,0.45-1.64,1.58-1.62c4.89,0.09,9.79,0.04,14.67,0.29c3.6,0.18,5.63,2.49,5.53,5.73
		C236.67,20.52,234.39,22.62,230.85,22.77z"/>
	<path class="st0" d="M272.96,102.02c1.06-0.38,1.75-0.66,2.46-0.89c10.07-3.18,13.82-12.91,10.8-21.87
		c-2.42-7.17-8.86-10.65-16.36-10.84c-10.03-0.26-20.07-0.05-30.11-0.09c-1.29-0.01-1.63,0.48-1.63,1.68
		c0.03,16.36,0.03,32.73,0.01,49.09c0,1.3,0.4,1.81,1.74,1.78c3.1-0.07,6.21-0.02,9.32-0.02c2.52,0,2.52-0.01,2.53-2.61
		c0-4.66-0.03-9.32,0.05-13.97c0.01-0.6,0.56-1.68,0.93-1.71c2.59-0.21,4.95-0.29,6.95,2.29c3.99,5.13,8.41,9.93,12.74,14.78
		c0.58,0.65,1.7,1.14,2.58,1.17c4.48,0.12,8.96,0.06,13.44,0.04c0.44,0,0.87-0.12,1.6-0.22
		C284.26,114.35,278.71,108.3,272.96,102.02z M268.19,90.92c-4.95,0.17-9.91,0.14-14.86,0.22c-1.13,0.02-1.62-0.47-1.61-1.6
		c0.03-2.63,0.03-5.25,0-7.88c-0.01-1.25,0.42-1.83,1.79-1.77c2.27,0.1,4.54,0.03,6.81,0.03c0-0.05,0.01-0.11,0.01-0.16
		c2.91,0.16,5.86,0.08,8.72,0.56c3.25,0.54,4.62,2.78,4.32,6.13C273.14,88.92,271.13,90.82,268.19,90.92z"/>
	<path class="st0" d="M63.94,51.53c-7.38-16.7-14.77-33.4-22.12-50.11c-0.47-1.06-1.12-1.37-2.2-1.36
		c-4.84,0.04-9.68,0.06-14.52-0.02c-1.41-0.02-2.12,0.46-2.68,1.75c-4.8,10.99-9.66,21.96-14.51,32.93C5.33,40.56,2.76,46.4,0,52.64
		c4.99,0,9.63,0.03,14.27-0.06c0.44-0.01,1.05-0.72,1.28-1.24c1.14-2.56,2.22-5.15,3.24-7.76c0.47-1.21,1.14-1.73,2.51-1.72
		c7.11,0.07,14.22,0.07,21.33,0c1.45-0.02,2.13,0.5,2.63,1.81c0.97,2.56,2.15,5.05,3.16,7.6c0.42,1.05,1.03,1.43,2.16,1.4
		c2.69-0.07,5.38-0.02,8.07-0.02c1.82,0,3.64,0,5.63,0C64.1,52.08,64.06,51.79,63.94,51.53z M24.22,30.54
		c2.54-6.07,4.99-11.91,7.43-17.74c0.21-0.02,0.42-0.05,0.62-0.07c2.46,5.84,4.91,11.68,7.49,17.81
		C34.44,30.54,29.54,30.54,24.22,30.54z"/>
	<path class="st0" d="M381.54,51.58c-7.37-16.7-14.75-33.4-22.08-50.11c-0.51-1.16-1.24-1.42-2.36-1.41
		c-4.42,0.03-8.85,0.17-13.26-0.05c-2.39-0.12-3.42,0.8-4.33,2.9c-4.78,11.12-9.73,22.17-14.62,33.25
		c-2.36,5.34-4.71,10.69-7.12,16.16c0.4,0.17,0.56,0.3,0.72,0.3c4.36,0.02,8.72,0.07,13.08-0.03c0.55-0.01,1.33-0.72,1.59-1.29
		c1.17-2.55,2.24-5.14,3.23-7.76c0.48-1.26,1.19-1.69,2.53-1.67c5.55,0.07,11.11,0.01,16.67,0.04c2.14,0.01,4.72-0.56,6.28,0.43
		c1.47,0.94,2.17,3.5,2.66,5.49c1.01,4.08,3.3,5.44,7.43,4.91c3.21-0.41,6.5-0.08,9.93-0.08C381.72,52.12,381.66,51.84,381.54,51.58
		z M341.87,30.5c2.52-6.02,4.96-11.88,7.41-17.73c0.22,0.02,0.44,0.03,0.67,0.05c2.42,5.8,4.84,11.59,7.39,17.68
		C352.11,30.5,347.22,30.5,341.87,30.5z"/>
	<path class="st0" d="M229.87,78.27c-3.04-6.91-9.01-9.57-16.15-9.87c-4.95-0.21-9.91-0.04-14.87-0.04c0,0,0,0,0-0.01
		c-5.08,0-10.15,0.04-15.23-0.03c-1.34-0.02-1.74,0.42-1.74,1.74c0.04,16.36,0.04,32.72,0,49.08c0,1.36,0.48,1.76,1.77,1.73
		c3.34-0.06,6.69-0.08,10.03,0.01c1.45,0.04,1.99-0.39,1.96-1.92c-0.09-4.42,0.03-8.84-0.06-13.25c-0.03-1.62,0.43-2.19,2.11-2.16
		c5.43,0.09,10.88,0.23,16.3-0.02C229.17,102.83,234.63,89.09,229.87,78.27z M211.37,92.02c-2.33,0.02-4.65,0-6.98,0
		c-2.45,0-4.89-0.04-7.34,0.02c-1.08,0.02-1.48-0.36-1.46-1.45c0.05-3.1,0.04-6.2,0.01-9.3c-0.01-0.99,0.38-1.38,1.37-1.38
		c4.89,0.03,9.78-0.07,14.67,0.05c3.78,0.09,6.18,2.7,6.1,6.29C217.68,89.73,215.2,91.98,211.37,92.02z"/>
</g>
</svg>
