<?xml version="1.0" encoding="utf-8"?>
<!-- Generator: Adobe Illustrator 19.2.1, SVG Export Plug-In . SVG Version: 6.00 Build 0)  -->
<svg version="1.2" baseProfile="tiny" id="Layer_1" xmlns="http://www.w3.org/2000/svg" xmlns:xlink="http://www.w3.org/1999/xlink"
	 x="0px" y="0px" viewBox="0 0 794 373" xml:space="preserve">
<g>
	<path fill="#333E48" d="M722.92,65.11c-10.88,0-22.89,6.04-27.67,16.97l-50.91,116.6L626,82.08c-2.12-10.93-9.53-16.97-21.3-16.97
		h-64.43l55.13,193.71c1,3.71,1.2,7.81,0.49,12.16c-2.93,16.18-18.33,29.28-34.52,29.28h-36.08c-9.18,0-15.22,5.69-18.19,18.51
		l-7.99,48.03h63.55c33.19,0,72.15-16.68,98.11-62.75L788.08,65.11H722.92z"/>
	<path fill="#333E48" d="M97.15,7.27c19.05,0,28.22,7.61,24.87,26.7l-5.51,31.07h43.76l-9.65,54.63h-43.74l-11.94,67.66
		c-4.12,23.53,19.22,26.68,32.6,26.68c2.66,0,4.86-0.08,6.48-0.16l-10.74,60.9c-3.29,0.34-6.67,0.81-13.89,0.81
		c-33.21,0-96.03-8.88-83.67-78.93l13.54-76.96H7.37l9.62-54.63h31.53L58.71,7.27H97.15z"/>
	<g>
		<path fill="#00ADBB" d="M464.67,67.56l-11.23,63.68c13.87,7.05,23.35,21.48,23.35,38.05c0,21.91-16.37,39.83-37.53,42.4
			l-11.23,63.7c2,0.11,4,0.17,6.02,0.17c58.71,0,106.29-47.59,106.29-106.27C540.35,121.31,508.46,80.72,464.67,67.56z"/>
		<path fill="#00ADBB" d="M414.66,207.36c-13.8-7.05-23.31-21.48-23.31-38.07c0-21.75,16.41-39.8,37.54-42.37l11.2-63.66
			c-1.99-0.12-4-0.2-6.02-0.2c-58.66,0-106.26,47.62-106.26,106.22c0,48.01,31.9,88.64,75.66,101.78L414.66,207.36z"/>
	</g>
	<path fill="#333E48" d="M185.61,65.11h37.57c19.05,0,28.21,7.62,24.86,26.71l-4.12,23.09c13.98-28.45,44.35-51.89,75.53-51.89
		c4.12,0,8.03,0.81,8.03,0.81l-12.16,68.88c0,0-5.46-1.26-13.98-1.26c-16.61,0-44.65,5.24-60.28,36.46
		c-3.77,7.68-6.6,17.04-8.59,28.32l-13.61,77.36h-70.04L185.61,65.11z"/>
</g>
</svg>
