<?xml version="1.0" encoding="utf-8"?>
<!-- Generator: Adobe Illustrator 19.1.0, SVG Export Plug-In . SVG Version: 6.00 Build 0)  -->
<svg version="1.1" id="Layer_1" xmlns="http://www.w3.org/2000/svg" xmlns:xlink="http://www.w3.org/1999/xlink" x="0px" y="0px"
	 viewBox="0 0 24 7.4" style="enable-background:new 0 0 24 7.4;" xml:space="preserve">
<style type="text/css">
	.st0{fill:#ED2026;}
	.st1{fill:#FBA81D;}
	.st2{fill:#005197;}
	.st3{fill:#F4A51D;}
</style>
<g id="visa">
	<g>
		<polygon class="st2" points="8.5,7.3 9.7,0.1 11.6,0.1 10.4,7.3 		"/>
		<path class="st2" d="M17.4,0.3c-0.4-0.1-1-0.3-1.7-0.3c-1.9,0-3.3,1-3.3,2.4c0,1,1,1.6,1.7,1.9c0.8,0.3,1,0.6,1,0.9
			c0,0.5-0.6,0.7-1.2,0.7c-0.8,0-1.2-0.1-1.8-0.4l-0.3-0.1L11.6,7c0.5,0.2,1.3,0.4,2.2,0.4c2,0,3.4-1,3.4-2.4c0-0.8-0.5-1.4-1.6-1.9
			c-0.7-0.3-1.1-0.5-1.1-0.9c0-0.3,0.4-0.6,1.1-0.6c0.6,0,1.1,0.1,1.5,0.3l0.2,0.1L17.4,0.3"/>
		<path class="st2" d="M22.4,0.1h-1.5c-0.5,0-0.8,0.1-1,0.6L17,7.3h2c0,0,0.3-0.9,0.4-1.1c0.2,0,2.2,0,2.5,0
			c0.1,0.2,0.2,1.1,0.2,1.1H24L22.4,0.1 M20,4.7c0.2-0.4,0.8-2,0.8-2c0,0,0.2-0.4,0.3-0.7l0.1,0.6c0,0,0.4,1.7,0.4,2.1H20z"/>
		<path class="st2" d="M6.8,0.1L4.9,5L4.7,4C4.4,2.9,3.3,1.6,2,1l1.7,6.2l2.1,0l3.1-7.1H6.8"/>
		<path class="st3" d="M3.2,0.1H0l0,0.1c2.4,0.6,4.1,2,4.7,3.7L4,0.7C3.9,0.3,3.6,0.1,3.2,0.1"/>
	</g>
</g>
</svg>
